[Header]
FileType HTR
DataType HTRS
FileVersion 1
NumSegments 64
NumFrames 3
DataFrameRate 24
EulerRotationOrder ZYX
CalibrationUnits mm
RotationUnits Degrees
GlobalAxisofGravity Y
BoneLengthAxis Y
ScaleFactor 1.0
[SegmentNames&Hierarchy]
Hips	GLOBAL
Spine	Hips
Spine1	Spine
Spine2	Spine1
Neck	Spine2
Head	Neck
LeftEye	Head
RightEye	Head
LeftShoulder	Spine2
LeftArm	LeftShoulder
LeftForeArm	LeftArm
LeftHand	LeftForeArm
LeftHandThumb1	LeftHand
LeftHandThumb2	LeftHandThumb1
LeftHandThumb3	LeftHandThumb2
LeftHandThumb4	LeftHandThumb3
LeftHandIndex1	LeftHand
LeftHandIndex2	LeftHandIndex1
LeftHandIndex3	LeftHandIndex2
LeftHandIndex4	LeftHandIndex3
LeftHandMiddle1	LeftHand
LeftHandMiddle2	LeftHandMiddle1
LeftHandMiddle3	LeftHandMiddle2
LeftHandMiddle4	LeftHandMiddle3
LeftHandRing1	LeftHand
LeftHandRing2	LeftHandRing1
LeftHandRing3	LeftHandRing2
LeftHandRing4	LeftHandRing3
LeftHandPinky1	LeftHand
LeftHandPinky2	LeftHandPinky1
LeftHandPinky3	LeftHandPinky2
LeftHandPinky4	LeftHandPinky3
RightShoulder	Spine2
RightArm	RightShoulder
RightForeArm	RightArm
RightHand	RightForeArm
RightHandPinky1	RightHand
RightHandPinky2	RightHandPinky1
RightHandPinky3	RightHandPinky2
RightHandPinky4	RightHandPinky3
RightHandRing1	RightHand
RightHandRing2	RightHandRing1
RightHandRing3	RightHandRing2
RightHandRing4	RightHandRing3
RightHandMiddle1	RightHand
RightHandMiddle2	RightHandMiddle1
RightHandMiddle3	RightHandMiddle2
RightHandMiddle4	RightHandMiddle3
RightHandIndex1	RightHand
RightHandIndex2	RightHandIndex1
RightHandIndex3	RightHandIndex2
RightHandIndex4	RightHandIndex3
RightHandThumb1	RightHand
RightHandThumb2	RightHandThumb1
RightHandThumb3	RightHandThumb2
RightHandThumb4	RightHandThumb3
LeftUpLeg	Hips
LeftLeg	LeftUpLeg
LeftFoot	LeftLeg
LeftToeBase	LeftFoot
RightUpLeg	Hips
RightLeg	RightUpLeg
RightFoot	RightLeg
RightToeBase	RightFoot
[BasePosition]
Hips	0	0	0	0	0	0	1
Spine	0	0	0	0	0	0	1
Spine1	0	0	0	0	0	0	1
Spine2	0	0	0	0	0	0	1
Neck	0	0	0	0	0	0	1
Head	0	0	0	0	0	0	1
LeftEye	0	0	0	0	0	0	1
RightEye	0	0	0	0	0	0	1
LeftShoulder	0	0	0	0	0	0	1
LeftArm	0	0	0	0	0	0	1
LeftForeArm	0	0	0	0	0	0	1
LeftHand	0	0	0	0	0	0	1
LeftHandThumb1	0	0	0	0	0	0	1
LeftHandThumb2	0	0	0	0	0	0	1
LeftHandThumb3	0	0	0	0	0	0	1
LeftHandThumb4	0	0	0	0	0	0	1
LeftHandIndex1	0	0	0	0	0	0	1
LeftHandIndex2	0	0	0	0	0	0	1
LeftHandIndex3	0	0	0	0	0	0	1
LeftHandIndex4	0	0	0	0	0	0	1
LeftHandMiddle1	0	0	0	0	0	0	1
LeftHandMiddle2	0	0	0	0	0	0	1
LeftHandMiddle3	0	0	0	0	0	0	1
LeftHandMiddle4	0	0	0	0	0	0	1
LeftHandRing1	0	0	0	0	0	0	1
LeftHandRing2	0	0	0	0	0	0	1
LeftHandRing3	0	0	0	0	0	0	1
LeftHandRing4	0	0	0	0	0	0	1
LeftHandPinky1	0	0	0	0	0	0	1
LeftHandPinky2	0	0	0	0	0	0	1
LeftHandPinky3	0	0	0	0	0	0	1
LeftHandPinky4	0	0	0	0	0	0	1
RightShoulder	0	0	0	0	0	0	1
RightArm	0	0	0	0	0	0	1
RightForeArm	0	0	0	0	0	0	1
RightHand	0	0	0	0	0	0	1
RightHandPinky1	0	0	0	0	0	0	1
RightHandPinky2	0	0	0	0	0	0	1
RightHandPinky3	0	0	0	0	0	0	1
RightHandPinky4	0	0	0	0	0	0	1
RightHandRing1	0	0	0	0	0	0	1
RightHandRing2	0	0	0	0	0	0	1
RightHandRing3	0	0	0	0	0	0	1
RightHandRing4	0	0	0	0	0	0	1
RightHandMiddle1	0	0	0	0	0	0	1
RightHandMiddle2	0	0	0	0	0	0	1
RightHandMiddle3	0	0	0	0	0	0	1
RightHandMiddle4	0	0	0	0	0	0	1
RightHandIndex1	0	0	0	0	0	0	1
RightHandIndex2	0	0	0	0	0	0	1
RightHandIndex3	0	0	0	0	0	0	1
RightHandIndex4	0	0	0	0	0	0	1
RightHandThumb1	0	0	0	0	0	0	1
RightHandThumb2	0	0	0	0	0	0	1
RightHandThumb3	0	0	0	0	0	0	1
RightHandThumb4	0	0	0	0	0	0	1
LeftUpLeg	0	0	0	0	0	0	1
LeftLeg	0	0	0	0	0	0	1
LeftFoot	0	0	0	0	0	0	1
LeftToeBase	0	0	0	0	0	0	1
RightUpLeg	0	0	0	0	0	0	1
RightLeg	0	0	0	0	0	0	1
RightFoot	0	0	0	0	0	0	1
RightToeBase	0	0	0	0	0	0	1
[Hips]
9	40.51807022	955.4002686	594.0634155	1.116326332	-1.637136221	-1.396971941	1.0
10	48.5366478	957.7757568	666.2094116	0.4569291174	-0.7381010652	-1.211594582	1.0
11	53.0617218	966.4199829	730.7340088	-0.08094738424	0.1577783972	-0.6307888627	1.0
[Spine]
9	0	101.8159943	1.315000057	3.6094203	4.026425838	-0.7185438275	1.0
10	0	101.8159943	1.315000057	4.022434711	2.982350588	-0.5410780311	1.0
11	0	101.8159943	1.315000057	4.54175663	0.5320857167	-0.5028414726	1.0
[Spine1]
9	0	100.8349991	-10.00800037	1.262812972	2.002436876	-0.6582480669	1.0
10	0	100.8349991	-10.00800037	1.304048657	1.481387019	-0.6658224463	1.0
11	0	100.8349991	-10.00800037	1.619252801	0.6838674545	-0.4615351558	1.0
[Spine2]
9	0	91	-13.73399925	1.233926058	2.045433283	-0.6153978705	1.0
10	0	91	-13.73399925	1.257456899	1.531807899	-0.6297715306	1.0
11	0	91	-13.73399925	1.585815072	0.7337513566	-0.4417911172	1.0
[Neck]
9	0	166.7169952	-25.16200066	-0.180820182	-0.06683281809	-2.2396667	1.0
10	0	166.7169952	-25.16200066	-0.06281613559	0.3259240091	-2.864084959	1.0
11	0	166.7169952	-25.16200066	-0.08864873648	0.9021338224	-3.049150467	1.0
[Head]
9	0	96.17900085	16.84999847	-3.142733335	-1.970994115	1.978919387	1.0
10	0	96.17900085	16.84999847	-3.401857853	-1.259037852	2.386833668	1.0
11	0	96.17900085	16.84999847	-4.218355656	0.8764624596	0.9536380172	1.0
[LeftEye]
9	30.6760006	64.09500122	92.83599854	0	0	0	1.0
10	30.6760006	64.09500122	92.83599854	0	0	0	1.0
11	30.6760006	64.09500122	92.83599854	0	0	0	1.0
[RightEye]
9	-30.6760006	64.09500122	92.83499908	0	0	0	1.0
10	-30.6760006	64.09500122	92.83499908	0	0	0	1.0
11	-30.6760006	64.09500122	92.83499908	0	0	0	1.0
[LeftShoulder]
9	45.70400238	109.4599991	-26.28000069	2.020861864	-5.934083939	-14.53781319	1.0
10	45.70400238	109.4599991	-26.28000069	2.237822771	-6.696156502	-15.11662292	1.0
11	45.70400238	109.4599991	-26.28000069	2.380352497	-6.959496021	-16.00202942	1.0
[LeftArm]
9	105.923996	-5.24600029	-22.32099915	17.33617783	8.934619904	-61.23376846	1.0
10	105.923996	-5.24600029	-22.32099915	18.56237411	5.164638042	-58.9188652	1.0
11	105.923996	-5.24600029	-22.32099915	17.27142715	-0.008248705417	-57.39490891	1.0
[LeftForeArm]
9	278.414978	-0.0009999999311	0	4.845369403e-06	-6.746203899	-0.0002239751047	1.0
10	278.414978	-0.0009999999311	0	-1.881700996e-06	-9.536707878	-0.000226461445	1.0
11	278.414978	-0.0009999999311	0	-2.50231551e-06	-12.82975006	-0.0002105107851	1.0
[LeftHand]
9	283.2879944	0	0	7.788047791	5.461248398	-15.16603184	1.0
10	283.2879944	0	0	4.641940117	4.34830904	-14.27673149	1.0
11	283.2879944	0	0	3.062330246	5.218578815	-13.64081573	1.0
[LeftHandThumb1]
9	24.6609993	-15.75	26.8239994	5.839803696	2.504242897	11.148386	1.0
10	24.6609993	-15.75	26.8239994	5.839803696	2.504242897	11.148386	1.0
11	24.6609993	-15.75	26.8239994	5.839803696	2.504242897	11.148386	1.0
[LeftHandThumb2]
9	32.29800034	-18.64699936	18.64699936	9.1366539	9.876673698	6.274604321	1.0
10	32.29800034	-18.64699936	18.64699936	9.071473122	13.69549656	7.660991669	1.0
11	32.29800034	-18.64699936	18.64699936	9.076836586	15.15656662	8.202880859	1.0
[LeftHandThumb3]
9	26.52600098	-15.31499958	15.31499958	-1.6266433	-9.570411682	21.53385544	1.0
10	26.52600098	-15.31499958	15.31499958	-1.978215098	-10.26146603	22.30454826	1.0
11	26.52600098	-15.31499958	15.31499958	-1.857712269	-9.921114922	22.4389019	1.0
[LeftHandThumb4]
9	19.54599953	-11.28499985	11.28499985	0	0	0	1.0
10	19.54599953	-11.28499985	11.28499985	0	0	0	1.0
11	19.54599953	-11.28499985	11.28499985	0	0	0	1.0
[LeftHandIndex1]
9	91.09299469	-5.170999527	22.60099792	-0.7952275276	-0.432959646	-23.3886528	1.0
10	91.09299469	-5.170999527	22.60099792	-0.6562252641	-0.1364569068	-22.28873253	1.0
11	91.09299469	-5.170999527	22.60099792	-0.6032255292	-0.4758637846	-21.15060997	1.0
[LeftHandIndex2]
9	36.76399994	0	0	-0.1999210268	1.515454769	-15.02956104	1.0
10	36.76399994	0	0	-0.1981453151	1.508816123	-14.96214867	1.0
11	36.76399994	0	0	-0.1982211918	1.50910902	-14.96522141	1.0
[LeftHandIndex3]
9	28.83100128	0	0	-0.1999226063	1.515457511	-15.02955532	1.0
10	28.83100128	0	0	-0.1981425881	1.508813739	-14.96216583	1.0
11	28.83100128	0	0	-0.1982209086	1.509110451	-14.96520615	1.0
[LeftHandIndex4]
9	23.92700005	0	0	0	0	0	1.0
10	23.92700005	0	0	0	0	0	1.0
11	23.92700005	0	0	0	0	0	1.0
[LeftHandMiddle1]
9	95.33399963	0	0	-1.960074186	4.807644844	-30.63482857	1.0
10	95.33399963	0	0	-1.926447511	4.795599461	-30.25034332	1.0
11	95.33399963	0	0	-1.860416174	4.79835844	-29.49002075	1.0
[LeftHandMiddle2]
9	36.98199844	0	0	-0.1247533783	1.201106191	-11.8594389	1.0
10	36.98199844	0	0	-0.1241323799	1.198113561	-11.82932663	1.0
11	36.98199844	0	0	-0.1241882071	1.198417306	-11.83241844	1.0
[LeftHandMiddle3]
9	29.50900078	0	0	-0.1699210852	1.398996949	-13.85011101	1.0
10	29.50900078	0	0	-0.1691879183	1.396027923	-13.82002735	1.0
11	29.50900078	0	0	-0.1692695618	1.396331906	-13.82311058	1.0
[LeftHandMiddle4]
9	28.3390007	0	0	0	0	0	1.0
10	28.3390007	0	0	0	0	0	1.0
11	28.3390007	0	0	0	0	0	1.0
[LeftHandRing1]
9	91.04499817	-0.4390000105	-18.65100098	-2.031662464	7.069000721	-31.47132492	1.0
10	91.04499817	-0.4390000105	-18.65100098	-1.930989623	7.226735115	-30.3355484	1.0
11	91.04499817	-0.4390000105	-18.65100098	-1.882703662	7.171592236	-29.78076935	1.0
[LeftHandRing2]
9	31.54000092	0	0	-0.3230879605	1.91601491	-19.14157677	1.0
10	31.54000092	0	0	-0.3232464194	1.916422009	-19.14601326	1.0
11	31.54000092	0	0	-0.3241009116	1.918870926	-19.17146301	1.0
[LeftHandRing3]
9	29.37700081	0	0	-0.3928858042	2.106238127	-21.13012314	1.0
10	29.37700081	0	0	-0.3930132687	2.106572866	-21.13371277	1.0
11	29.37700081	0	0	-0.3939583302	2.10900569	-21.15920258	1.0
[LeftHandRing4]
9	26.47500038	0	0	0	0	0	1.0
10	26.47500038	0	0	0	0	0	1.0
11	26.47500038	0	0	0	0	0	1.0
[LeftHandPinky1]
9	80.77799988	-4.887000084	-38.06099701	-2.421375751	5.574706554	-35.51004028	1.0
10	80.77799988	-4.887000084	-38.06099701	-2.370384216	4.643434525	-35.18161392	1.0
11	80.77799988	-4.887000084	-38.06099701	-2.369959354	4.906241894	-35.17566681	1.0
[LeftHandPinky2]
9	36	0	0	-0.2627363205	1.732429981	-17.24547386	1.0
10	36	0	0	-0.2604472041	1.725069046	-17.17003059	1.0
11	36	0	0	-0.2631564438	1.733805895	-17.25973892	1.0
[LeftHandPinky3]
9	21.14200211	0	0	-0.2627200782	1.732417703	-17.24549866	1.0
10	21.14200211	0	0	-0.2604313195	1.725009918	-17.16930771	1.0
11	21.14200211	0	0	-0.263150543	1.733780622	-17.25943184	1.0
[LeftHandPinky4]
9	19.75699997	0	0	0	0	0	1.0
10	19.75699997	0	0	0	0	0	1.0
11	19.75699997	0	0	0	0	0	1.0
[RightShoulder]
9	-45.70000076	109.4620056	-26.28000069	2.037096977	6.431930542	13.53895473	1.0
10	-45.70000076	109.4620056	-26.28000069	2.018229485	6.220444679	13.81591225	1.0
11	-45.70000076	109.4620056	-26.28000069	2.019261122	6.264355659	13.72491932	1.0
[RightArm]
9	-105.9280014	-5.248000145	-22.32099915	25.55578041	17.92395973	47.86722946	1.0
10	-105.9280014	-5.248000145	-22.32099915	26.20129967	13.79836464	51.00426865	1.0
11	-105.9280014	-5.248000145	-22.32099915	26.76566124	12.08771324	53.53240967	1.0
[RightForeArm]
9	-278.414978	0	0	-4.946685294e-06	23.76913834	3.148699989e-06	1.0
10	-278.414978	0	0	5.942184544e-06	21.12051773	6.626650247e-06	1.0
11	-278.414978	0	0	7.003828159e-06	16.77556992	-2.801398068e-06	1.0
[RightHand]
9	-283.2879944	0	0.0009999999311	4.487944603	10.75223923	0.8240351677	1.0
10	-283.2879944	0	0.0009999999311	6.115152836	12.51456833	0.8703186512	1.0
11	-283.2879944	0	0.0009999999311	8.251969337	13.66375065	1.789789319	1.0
[RightHandPinky1]
9	-80.76699829	-4.885000229	-38.06000137	-1.880281448	-2.695015907	28.62627411	1.0
10	-80.76699829	-4.885000229	-38.06000137	-1.826421142	-2.811781168	28.21430397	1.0
11	-80.76699829	-4.885000229	-38.06000137	-1.705706716	-3.364296198	27.88858223	1.0
[RightHandPinky2]
9	-36	0	0.0009999999311	-0.5673964024	-2.222839355	28.65512085	1.0
10	-36	0	0.0009999999311	-0.5677216649	-2.223435879	28.66366959	1.0
11	-36	0	0.0009999999311	-0.5667123795	-2.221605539	28.63784599	1.0
[RightHandPinky3]
9	-21.14200211	0	0	-0.177953884	-1.272712111	15.92014694	1.0
10	-21.14200211	0	0	-0.1782090664	-1.273591518	15.93133545	1.0
11	-21.14200211	0	0	-0.1778713614	-1.27237761	15.91588974	1.0
[RightHandPinky4]
9	-19.75699997	0	0	0	0	0	1.0
10	-19.75699997	0	0	0	0	0	1.0
11	-19.75699997	0	0	0	0	0	1.0
[RightHandRing1]
9	-91.03599548	-0.4390000105	-18.65100098	-1.229937673	-2.514158249	23.23078537	1.0
10	-91.03599548	-0.4390000105	-18.65100098	-1.24001348	-2.602040291	23.37571907	1.0
11	-91.03599548	-0.4390000105	-18.65100098	-1.237547517	-2.719941139	23.33744812	1.0
[RightHandRing2]
9	-31.54000092	0	0	-1.497797966	-3.411668301	47.39544296	1.0
10	-31.54000092	0	0	-1.497095704	-3.411010742	47.38341522	1.0
11	-31.54000092	0	0	-1.50228858	-3.415777206	47.47054291	1.0
[RightHandRing3]
9	-29.37700081	0	0	-0.3721857965	-1.820555687	23.1063385	1.0
10	-29.37700081	0	0	-0.3718144298	-1.819662571	23.09454918	1.0
11	-29.37700081	0	0	-0.3745863438	-1.826150656	23.18179703	1.0
[RightHandRing4]
9	-26.47500038	0	0	0	0	0	1.0
10	-26.47500038	0	0	0	0	0	1.0
11	-26.47500038	0	0	0	0	0	1.0
[RightHandMiddle1]
9	-95.32500458	0	0	-0.988437593	-0.2886829078	19.70251083	1.0
10	-95.32500458	0	0	-0.9826084971	-0.4939267039	19.60143089	1.0
11	-95.32500458	0	0	-0.9905304313	-0.4858514667	19.72388458	1.0
[RightHandMiddle2]
9	-36.98199844	0	0	-0.8466531634	-2.671061754	35.16958237	1.0
10	-36.98199844	0	0	-0.8454635739	-2.669358969	35.14374542	1.0
11	-36.98199844	0	0	-0.8501318693	-2.675965071	35.24388504	1.0
[RightHandMiddle3]
9	-29.50900078	0	0	-0.290451467	-1.61773181	20.38074493	1.0
10	-29.50900078	0	0	-0.289732486	-1.615812182	20.35541153	1.0
11	-29.50900078	0	0	-0.2925493717	-1.623375058	20.45537186	1.0
[RightHandMiddle4]
9	-28.3390007	0	0.0009999999311	0	0	0	1.0
10	-28.3390007	0	0.0009999999311	0	0	0	1.0
11	-28.3390007	0	0.0009999999311	0	0	0	1.0
[RightHandIndex1]
9	-91.08300018	-5.167999744	22.60099792	-0.7702365518	4.444573879	18.65908051	1.0
10	-91.08300018	-5.167999744	22.60099792	-0.75543046	4.246314049	19.24398613	1.0
11	-91.08300018	-5.167999744	22.60099792	-0.752096951	4.186830997	19.43090248	1.0
[RightHandIndex2]
9	-36.76399994	0	0	-0.38739416	-1.855792046	23.58068848	1.0
10	-36.76399994	0	0	-0.3886943758	-1.858740211	23.62049294	1.0
11	-36.76399994	0	0	-0.3907485306	-1.863423109	23.68385506	1.0
[RightHandIndex3]
9	-28.83100128	0	0	-0.07504241168	-0.8311126828	10.31777	1.0
10	-28.83100128	0	0	-0.07562877238	-0.8342798948	10.35754776	1.0
11	-28.83100128	0	0	-0.07654119283	-0.8393266201	10.42082691	1.0
[RightHandIndex4]
9	-23.92700005	0	0	0	0	0	1.0
10	-23.92700005	0	0	0	0	0	1.0
11	-23.92700005	0	0	0	0	0	1.0
[RightHandThumb1]
9	-24.64799881	-15.72700024	26.82600021	12.78110313	-2.167885065	-4.410644054	1.0
10	-24.64799881	-15.72700024	26.82600021	12.78110313	-2.167885065	-4.410644054	1.0
11	-24.64799881	-15.72700024	26.82600021	12.78110313	-2.167885065	-4.410644054	1.0
[RightHandThumb2]
9	-32.29800034	-18.64699936	18.64699936	7.810054302	-16.02227974	-10.01032162	1.0
10	-32.29800034	-18.64699936	18.64699936	8.852251053	-16.66303825	-9.916157722	1.0
11	-32.29800034	-18.64699936	18.64699936	9.609859467	-19.1652813	-10.24562073	1.0
[RightHandThumb3]
9	-26.52600098	-15.31399918	15.31399918	-15.51310349	-4.782637119	-11.26598549	1.0
10	-26.52600098	-15.31399918	15.31399918	-15.51343727	-4.781881332	-11.26624203	1.0
11	-26.52600098	-15.31399918	15.31399918	-15.49753094	-4.819527149	-11.25436306	1.0
[RightHandThumb4]
9	-19.54599953	-11.28499985	11.28499985	0	0	0	1.0
10	-19.54599953	-11.28499985	11.28499985	0	0	0	1.0
11	-19.54599953	-11.28499985	11.28499985	0	0	0	1.0
[LeftUpLeg]
9	82.07800293	-67.51699829	-15.99599934	-37.77017975	5.616327286	-1.644738674	1.0
10	82.07800293	-67.51699829	-15.99599934	-36.09015656	5.694954872	-1.669903517	1.0
11	82.07800293	-67.51699829	-15.99599934	-31.97346306	5.412755966	-2.464391708	1.0
[LeftLeg]
9	0	-443.7049866	2.845999956	29.98194695	-2.902409792	-2.753565311	1.0
10	0	-443.7049866	2.845999956	37.44374084	-2.462748289	-4.257851124	1.0
11	0	-443.7049866	2.845999956	39.27555466	-2.959281921	-4.30337286	1.0
[LeftFoot]
9	0	-444.2789917	-29.8219986	6.695385933	-0.1062163338	3.41575098	1.0
10	0	-444.2789917	-29.8219986	-1.68095994	0.07677783817	4.855809212	1.0
11	0	-444.2789917	-29.8219986	-7.029345036	0.2645211518	5.178881645	1.0
[LeftToeBase]
9	0	-87.28699493	107.1060028	-7.286311626	2.195469051e-07	-9.889146213e-07	1.0
10	0	-87.28699493	107.1060028	-7.129721165	1.471944984e-06	-8.072684068e-07	1.0
11	0	-87.28699493	107.1060028	-7.417348385	7.737132819e-07	-3.331552278e-08	1.0
[RightUpLeg]
9	-82.07800293	-67.51699829	-15.99599934	14.08494377	-14.831357	-6.035958767	1.0
10	-82.07800293	-67.51699829	-15.99599934	3.303381205	-13.13048553	-5.889256954	1.0
11	-82.07800293	-67.51699829	-15.99599934	-7.564459801	-11.5484848	-5.091144562	1.0
[RightLeg]
9	0	-443.7049866	2.861999989	32.74712372	10.79591656	-1.533947349	1.0
10	0	-443.7049866	2.861999989	54.50249863	6.076032162	-2.407603979	1.0
11	0	-443.7049866	2.861999989	68.28923798	2.048940659	-7.220470905	1.0
[RightFoot]
9	0	-444.2770081	-29.83799934	7.490619183	-0.7956824303	11.07117271	1.0
10	0	-444.2770081	-29.83799934	15.13821125	-2.126053095	11.9284668	1.0
11	0	-444.2770081	-29.83799934	10.32675171	-1.130912304	8.597594261	1.0
[RightToeBase]
9	0	-87.28699493	107.1060028	-24.55507851	-0.220243901	-0.4890233278	1.0
10	0	-87.28699493	107.1060028	-12.12627506	-2.679850013e-06	5.918408533e-06	1.0
11	0	-87.28699493	107.1060028	-13.62333584	-3.804201469e-06	-2.661609869e-06	1.0
[EndOfFile]
